<svg xmlns="http://www.w3.org/2000/svg" viewBox="0 0 38.62 64">
    <defs>
        <style>.cls-1{fill:#004680;}.cls-2{fill:#2080fb;}.cls-3{fill:#fff;}</style>
    </defs>
    <g id="Layer_2" data-name="Layer 2">
        <g id="powerful_app_builder" data-name="powerful app builder">
            <path class="cls-1"
                  d="M38.62,35.28V1.67A1.71,1.71,0,0,0,36.88,0H1.83A1.71,1.71,0,0,0,.09,1.67V53.33H38.62Z"/>
            <g id="_12" data-name="12">
                <path class="cls-2"
                      d="M0,54.17v6.48A3.35,3.35,0,0,0,3.35,64H35.18a3.35,3.35,0,0,0,3.35-3.35V54.17Zm19.36,7.71a2.76,2.76,0,1,1,2.76-2.76A2.76,2.76,0,0,1,19.36,61.88Z"/>
                <path class="cls-3"
                      d="M24.14,3.35a.83.83,0,0,0-.83-.84h-7.9a.84.84,0,1,0,0,1.67h7.9A.83.83,0,0,0,24.14,3.35Z"/>
            </g>
            <g id="_6" data-name="6">
                <path class="cls-3"
                      d="M3.77,53.2V51.31A1.37,1.37,0,0,1,5,49.93l2.38-.4a12.3,12.3,0,0,1,.9-2.19l-1.42-2A1.37,1.37,0,0,1,7,43.52l2.67-2.68a1.37,1.37,0,0,1,1.86-.09l2,1.4a11.64,11.64,0,0,1,2.19-.91l.4-2.41a1.38,1.38,0,0,1,1.37-1.22h3.79a1.38,1.38,0,0,1,1.38,1.25l.4,2.38a11.92,11.92,0,0,1,2.19.91l2-1.42a1.36,1.36,0,0,1,1.83.11l2.68,2.68a1.38,1.38,0,0,1,.09,1.85l-1.4,2a12.34,12.34,0,0,1,.91,2.19l2.41.4A1.38,1.38,0,0,1,35,51.3v1.9c0,.24-.44.44-.44.44s-.44-.2-.44-.44V51.3a.5.5,0,0,0-.46-.5l-2.71-.45a.45.45,0,0,1-.35-.31,11.26,11.26,0,0,0-1-2.52.44.44,0,0,1,0-.47l1.57-2.21a.51.51,0,0,0,0-.7l-2.68-2.68a.51.51,0,0,0-.68,0L25.5,43a.44.44,0,0,1-.47,0,11.5,11.5,0,0,0-2.51-1,.42.42,0,0,1-.31-.35L21.76,39a.51.51,0,0,0-.51-.48H17.46a.49.49,0,0,0-.5.45l-.45,2.71a.43.43,0,0,1-.32.35,11.5,11.5,0,0,0-2.51,1,.44.44,0,0,1-.47,0L11,41.44a.52.52,0,0,0-.71,0L7.62,44.14a.5.5,0,0,0,0,.68l1.6,2.23a.42.42,0,0,1,0,.47,11.84,11.84,0,0,0-1,2.52.45.45,0,0,1-.35.31l-2.68.45a.51.51,0,0,0-.48.51V53.2C4.65,53.44,3.77,53.44,3.77,53.2Zm15.59-8.92a8.94,8.94,0,0,0-8.93,8.92.44.44,0,0,0,.44.44.44.44,0,0,0,.44-.44,8,8,0,1,1,16.09,0c0,.24.44.44.44.44s.44-.2.44-.44A8.93,8.93,0,0,0,19.36,44.28Z"/>
                <g id="_2" data-name="2">
                    <path class="cls-3"
                          d="M8.65,47.53,6.94,45.14a.44.44,0,0,1,0-.59l3.33-3.37a.45.45,0,0,1,.62,0l2.36,1.68a.58.58,0,0,0,.61,0,8.89,8.89,0,0,1,2.25-1,.57.57,0,0,0,.41-.45l.35-3a.44.44,0,0,1,.44-.39h4a.46.46,0,0,1,.45.43l.43,2.64a1.16,1.16,0,0,0,.52.73,7.55,7.55,0,0,1,2,1,.58.58,0,0,0,.61,0l2.39-1.71a.43.43,0,0,1,.59,0l3.5,3.41a.45.45,0,0,1,0,.62L30.2,47.53a.58.58,0,0,0,0,.61c.48.84.6.69.86,1.61a.57.57,0,0,0,.46.41l2.94.12c.22,0,.53.57.53.8l0,2.56H27.84c-.27-5.07-3.28-9.11-8.42-9.11s-8.28,4-8.55,9.11H3.76l0-2.55c0-.23.41-.42.67-.44l2.86-.48a.56.56,0,0,0,.45-.41c.26-.93.44-.78.92-1.62A.58.58,0,0,0,8.65,47.53Z"/>
                </g>
            </g>
        </g>
    </g>
</svg>