<svg xmlns="http://www.w3.org/2000/svg" viewBox="0 0 64 47.47"><defs><style>.cls-1{fill:#004680;}.cls-2{fill:#2080fb;}.cls-3{fill:#fff;}</style></defs><g id="Layer_2" data-name="Layer 2"><g id="ios_and_android" data-name="ios and android"><g id="_5" data-name="5"><path class="cls-1" d="M0,45.49a2,2,0,0,0,1.94,2H62.06a2,2,0,0,0,1.94-2V10.54H0Z"/></g><path class="cls-2" d="M64,8.56H0V2A2,2,0,0,1,1.94,0H62.06A2,2,0,0,1,64,2Z"/><rect class="cls-3" x="5.43" y="3.09" width="3.2" height="3.2" rx="1.5"/><rect class="cls-3" x="12.76" y="3.09" width="3.2" height="3.2" rx="1.5"/><rect class="cls-3" x="20.09" y="3.09" width="3.2" height="3.2" rx="1.5"/><path class="cls-2" d="M25.86,18.27a.87.87,0,0,0-.86-.86H6.23a.86.86,0,0,0,0,1.72H25A.86.86,0,0,0,25.86,18.27Z"/><path class="cls-2" d="M38.58,18.27a.86.86,0,0,0-.85-.86H29.62a.86.86,0,0,0,0,1.72h8.11A.85.85,0,0,0,38.58,18.27Z"/><path class="cls-2" d="M18.09,29.19a.86.86,0,0,0,.86.86H48.39a.86.86,0,1,0,0-1.71H19A.86.86,0,0,0,18.09,29.19Z"/><path class="cls-2" d="M5.64,40.12A.85.85,0,0,0,6.5,41H35.94a.86.86,0,1,0,0-1.71H6.5A.85.85,0,0,0,5.64,40.12Z"/><path class="cls-2" d="M5.37,29.19a.85.85,0,0,0,.86.86h8.1a.86.86,0,1,0,0-1.71H6.23A.85.85,0,0,0,5.37,29.19Z"/><path class="cls-3" d="M18.09,34.65a.86.86,0,0,0,.86.86H37.73a.86.86,0,0,0,0-1.71H19A.86.86,0,0,0,18.09,34.65Z"/><path class="cls-3" d="M5.37,34.65a.85.85,0,0,0,.86.86h8.1a.86.86,0,1,0,0-1.71H6.23A.85.85,0,0,0,5.37,34.65Z"/><path class="cls-2" d="M41.73,34.65a.86.86,0,0,0,.86.86H50.7a.86.86,0,1,0,0-1.71H42.59A.86.86,0,0,0,41.73,34.65Z"/><path class="cls-3" d="M57.86,23.73a.87.87,0,0,0-.86-.86H6.23a.86.86,0,0,0,0,1.72H57A.86.86,0,0,0,57.86,23.73Z"/></g></g></svg>