<svg xmlns="http://www.w3.org/2000/svg" viewBox="0 0 59.13 64"><defs><style>.cls-1{fill:#004680;}.cls-2{fill:#2080fb;}.cls-3{fill:#fff;}</style></defs><g id="Layer_2" data-name="Layer 2"><g id="unlimited_customization" data-name="unlimited customization"><g id="_13" data-name="13"><path class="cls-1" d="M46.19,51.12V64H36V51.12Zm-12,0V64H23.08V57.86l7.81-6.74Zm-15,7.63V50.86l3.9,4.53Zm0,5.25V61.2l2-1.74V64Zm15.1-18.27L25.89,36l7.71-6.64L42,39.08Zm4.21-20.65a6.44,6.44,0,0,1,8.41,9.75l-3.52,3L35,28.12Zm-14,12.1,8.41,9.75-8.4,7.25L19.21,48V41.74ZM0,64V0H17.36V64Zm57.24-1.9A6.39,6.39,0,0,1,52.69,64H48V51.12h4.65a6.45,6.45,0,0,1,6.44,6.44A6.36,6.36,0,0,1,57.24,62.1ZM8.68,46.54a6,6,0,1,0,6,6A6,6,0,0,0,8.68,46.54Zm0,10.1a4.13,4.13,0,1,1,4.13-4.12A4.13,4.13,0,0,1,8.68,56.64Z"/><path class="cls-2" d="M17.36,0H0V64H17.36ZM8.68,58.49a6,6,0,1,1,6-6A6,6,0,0,1,8.68,58.49Z"/></g><rect class="cls-3" x="1.99" y="8.22" width="13.38" height="1.85" rx="0.92"/><rect class="cls-3" x="1.99" y="14.7" width="13.38" height="1.85" rx="0.92"/><rect class="cls-3" x="1.99" y="21.17" width="13.38" height="1.85" rx="0.92"/></g></g></svg>